<?xml version="1.0" encoding="utf-8"?>
<!-- Generator: Adobe Illustrator 21.1.0, SVG Export Plug-In . SVG Version: 6.00 Build 0)  -->
<svg version="1.1" xmlns="http://www.w3.org/2000/svg" xmlns:xlink="http://www.w3.org/1999/xlink" x="0px" y="0px"
	 viewBox="0 0 652.5 330" style="enable-background:new 0 0 652.5 330;" xml:space="preserve">
<style type="text/css">
	.st0{fill:#FFFFFF;}
	.st1{fill:#232314;}
	.st2{fill:#494718;}
	.st3{fill:#6D6A20;}
	.st4{fill:#928C1E;}
	.st5{fill:#B6AF10;}
	.st6{fill:#DBD200;}
	.st7{fill:#F8E923;}
</style>
<g id="Layer_2">
</g>
<g id="Layer_1">
	<path class="st0" d="M19.6,194.5v-22.6l20.9-3.7v20.9c0,2.2,0.7,2.8,2.9,2.4l21-3.7c2.2-0.4,2.9-1.2,2.9-3.4v-79.5l20.9-3.7v81.2
		c0,13.8-6.5,21.5-20.3,23.9l-28,4.9C26.1,213.6,19.6,208.3,19.6,194.5z"/>
	<path class="st0" d="M105.2,179.4v-60.9c0-13.8,6.5-21.5,20.3-23.9l37.3-6.6c13.8-2.4,20.3,2.9,20.3,16.7v60.9
		c0,13.8-6.5,21.5-20.3,23.9l-37.3,6.6C111.7,198.5,105.2,193.2,105.2,179.4z M159.3,171c2.2-0.4,2.9-1.2,2.9-3.4v-57.4
		c0-2.2-0.7-2.8-2.9-2.4l-30.3,5.3c-2.2,0.4-2.9,1.2-2.9,3.4V174c0,2.2,0.7,2.8,2.9,2.4L159.3,171z"/>
	<path class="st0" d="M201.7,162.4V81.2l20.9-3.7V157c0,2.2,0.7,2.8,2.9,2.4l28.4-5c2.2-0.4,2.9-1.2,2.9-3.4V71.5l20.9-3.7V149
		c0,13.8-6.5,21.5-20.3,23.9l-35.4,6.2C208.3,181.5,201.7,176.1,201.7,162.4z"/>
	<path class="st0" d="M388,48.3l21.8-3.8l38.4,58.6V37.7l20.3-3.6v101.5l-20.3,3.6l-39.9-60.7v67.7l-20.3,3.6V48.3z"/>
	<path class="st0" d="M595.8,78.5l-33.1-61l22.6-4l21,41.5l21-48.9l22.3-3.9l-33.1,72.7v34.7l-20.9,3.7V78.5z"/>
	<polygon class="st1" points="19.1,233.7 40.1,230 32,277.2 24,324.3 3,328 	"/>
	<polygon class="st2" points="61,226.3 81.9,222.6 73.8,269.8 65.8,317 44.9,320.6 	"/>
	<polygon class="st3" points="102.8,218.9 123.7,215.3 115.6,262.5 107.6,309.6 86.6,313.3 	"/>
	<polygon class="st4" points="144.6,211.6 165.5,207.9 157.4,255.1 149.3,302.2 128.5,305.9 	"/>
	<polygon class="st5" points="186.4,204.2 207.2,200.5 199.2,247.7 191.1,294.9 170.2,298.5 	"/>
	<polygon class="st6" points="228.1,196.8 249.1,193.1 241,240.4 232.9,287.5 212,291.2 	"/>
	<polygon class="st7" points="641.9,123.9 625.7,218.2 253.8,283.8 270,189.5 	"/>
	<path d="M287.4,206.5l10.5-1.9l-7.3,42.8l21.5-3.8l-1.7,10l-32,5.6L287.4,206.5z"/>
	<path d="M330.4,239.8l5.4-31.7c1.2-7.2,5-11.1,11.8-12.3l18.5-3.3c6.8-1.2,9.4,1.6,8.3,8.8l-5.4,31.7c-1.2,7.2-5,11.1-11.8,12.3
		l-18.5,3.3C331.8,249.8,329.1,247,330.4,239.8z M356.9,235.8c1-0.2,1.5-0.6,1.7-1.8l5.1-29.9c0.1-1.1-0.1-1.4-1.2-1.3l-14.7,2.6
		c-1,0.2-1.5,0.6-1.6,1.7l-5.1,29.9c-0.2,1.1,0.1,1.4,1.1,1.3L356.9,235.8z"/>
	<path d="M396.9,187.2l10.4-1.8l13.6,30.6l5.8-34l10.2-1.8l-9,52.8l-9.7,1.7l-14.1-31.7l-6,35.2l-10.2,1.8L396.9,187.2z"/>
	<path d="M459.2,176.2l27.6-4.9c6.7-1.2,9.4,1.6,8.2,8.8l-5.4,31.7c-1.2,7.2-5,11.1-11.8,12.3l-27.6,4.9L459.2,176.2z M477.5,214.5
		c1.1-0.2,1.5-0.6,1.7-1.8l5.1-29.9c0.1-1.1-0.1-1.4-1.2-1.3l-15.1,2.7l-5.6,32.9L477.5,214.5z"/>
	<path d="M510.2,208.1l5.4-31.7c1.2-7.2,5-11.1,11.8-12.3l18.5-3.3c6.8-1.2,9.4,1.6,8.3,8.8l-5.4,31.7c-1.2,7.2-5,11.1-11.8,12.3
		l-18.5,3.3C511.6,218.1,509,215.3,510.2,208.1z M536.7,204.1c1-0.2,1.5-0.6,1.7-1.8l5.1-29.9c0.1-1.1-0.1-1.4-1.2-1.3l-14.7,2.6
		c-1,0.2-1.5,0.6-1.6,1.7l-5.1,29.9c-0.2,1.1,0.1,1.4,1.1,1.3L536.7,204.1z"/>
	<path d="M577.5,155.3l10.4-1.8l13.6,30.6l5.8-34l10.2-1.8l-9,52.8l-9.7,1.7l-14.1-31.7l-6,35.2l-10.2,1.8L577.5,155.3z"/>
	<polygon class="st0" points="508.5,109.4 555.9,101.1 552.5,120.8 487.6,132.3 487.6,30.8 555.9,18.7 552.6,38.5 508.5,46.2 
		508.5,67.2 546.9,60.5 543.6,79.9 508.5,86.1 	"/>
	<path class="st0" d="M369.9,145.4l-11.2-22l-2.6-5c0.6-0.2,1.1-0.4,1.6-0.6c0.1-0.1,0.3-0.1,0.4-0.2c0.4-0.2,0.7-0.3,1.1-0.5
		c0.2-0.1,0.3-0.2,0.5-0.3c0.3-0.2,0.6-0.3,0.9-0.5c0.2-0.1,0.4-0.2,0.5-0.3c0.1,0,0.1-0.1,0.2-0.1c0,0,0.1-0.1,0.1-0.1
		c0.1-0.1,0.3-0.2,0.4-0.3c0.1,0,0.1-0.1,0.2-0.2c0.2-0.1,0.3-0.3,0.5-0.4c0.1-0.1,0.1-0.1,0.2-0.2c0.1-0.1,0.2-0.1,0.2-0.2
		c0.1-0.1,0.2-0.2,0.4-0.3c0.1-0.1,0.2-0.2,0.3-0.3c0.1-0.1,0.3-0.3,0.4-0.4c0.1-0.1,0.3-0.3,0.4-0.4c0.1-0.1,0.2-0.2,0.3-0.3
		c0.1-0.2,0.3-0.3,0.4-0.5c0.1-0.2,0.3-0.3,0.4-0.5c0.1-0.1,0.1-0.2,0.2-0.3c0.1-0.1,0.2-0.3,0.3-0.4c0.1-0.1,0.2-0.3,0.3-0.4
		c0.1-0.2,0.3-0.4,0.4-0.6c0,0,0,0,0,0c0.1-0.2,0.3-0.5,0.4-0.7c0,0,0-0.1,0.1-0.1c0.2-0.4,0.4-0.7,0.5-1.1c0.1-0.1,0.1-0.2,0.2-0.3
		c0-0.1,0.1-0.2,0.1-0.2c0.1-0.2,0.1-0.3,0.2-0.5c0.1-0.1,0.1-0.3,0.2-0.4c0.1-0.2,0.2-0.5,0.3-0.7c0-0.1,0.1-0.2,0.1-0.3
		c0,0,0-0.1,0-0.1c0-0.1,0.1-0.3,0.1-0.4c0.1-0.4,0.2-0.7,0.3-1.1v0c0-0.1,0-0.1,0-0.2c0.1-0.3,0.2-0.7,0.2-1c0-0.1,0-0.2,0-0.2
		c0-0.3,0.1-0.5,0.1-0.8c0-0.2,0.1-0.3,0.1-0.5c0-0.1,0-0.3,0.1-0.4c0-0.1,0-0.2,0-0.3c0-0.2,0-0.3,0.1-0.5c0-0.1,0-0.3,0-0.4
		c0-0.2,0-0.5,0.1-0.8c0-0.2,0-0.4,0-0.6c0,0,0-0.1,0-0.1c0-0.1,0-0.2,0-0.3c0-0.5,0-1,0-1.5V77.1v-5.4c0-13.8-6.5-19.1-20.3-16.7
		l-5.4,0.9l-42.8,7.5l-5.4,0.9v5.4v90.8v5.4l5.4-0.9l10.2-1.8l5.4-0.9v-5.4v-30.5l0-18.6l0,0V79.6l29.1-5.1c2.2-0.4,2.9,0.2,2.9,2.4
		v22.5c0,2.2-0.7,3-2.9,3.4L334,105l-8.4,1.5l8.6,17l15.4,30.2l1.4,2.8l3.4-0.6l10.7-1.9l8.4-1.5L369.9,145.4z"/>
</g>
</svg>
